<mxfile host="app.diagrams.net" modified="2023-03-02T03:49:52.524Z" agent="5.0 (Windows NT 10.0; Win64; x64) AppleWebKit/537.36 (KHTML, like Gecko) Chrome/110.0.0.0 Safari/537.36" etag="-PKW7FF1Go5NXq0Mdv3G" version="20.8.23" type="github">
  <diagram id="kgpKYQtTHZ0yAKxKKP6v" name="Page-1">
    <mxGraphModel dx="968" dy="745" grid="1" gridSize="10" guides="1" tooltips="1" connect="1" arrows="1" fold="1" page="1" pageScale="1" pageWidth="850" pageHeight="1100" math="0" shadow="0">
      <root>
        <mxCell id="0" />
        <mxCell id="1" parent="0" />
        <mxCell id="Zyssp2xTZlaCK_Lh6rSp-1" value="流量解析" style="html=1;" vertex="1" parent="1">
          <mxGeometry x="480" y="50" width="110" height="50" as="geometry" />
        </mxCell>
        <mxCell id="Zyssp2xTZlaCK_Lh6rSp-2" value="风险分析" style="html=1;" vertex="1" parent="1">
          <mxGeometry x="660" y="50" width="110" height="50" as="geometry" />
        </mxCell>
        <mxCell id="Zyssp2xTZlaCK_Lh6rSp-3" value="流量采集" style="html=1;" vertex="1" parent="1">
          <mxGeometry x="120" y="50" width="110" height="50" as="geometry" />
        </mxCell>
        <mxCell id="Zyssp2xTZlaCK_Lh6rSp-4" value="数据库" style="html=1;" vertex="1" parent="1">
          <mxGeometry x="300" y="50" width="110" height="50" as="geometry" />
        </mxCell>
      </root>
    </mxGraphModel>
  </diagram>
</mxfile>
